{
	"asset":{
		"generator":"Khronos glTF Blender I/O v3.5.30",
		"version":"2.0"
	},
	"scene":0,
	"scenes":[
		{
			"name":"Scene",
			"nodes":[
				0
			]
		}
	],
	"nodes":[
		{
			"mesh":0,
			"name":"Cube.002",
			"translation":[
				0.17390072345733643,
				-0.10885091871023178,
				-0.2499999701976776
			]
		}
	],
	"animations":[
		{
			"channels":[
				{
					"sampler":0,
					"target":{
						"node":0,
						"path":"translation"
					}
				},
				{
					"sampler":1,
					"target":{
						"node":0,
						"path":"rotation"
					}
				},
				{
					"sampler":2,
					"target":{
						"node":0,
						"path":"scale"
					}
				}
			],
			"name":"Cube.002",
			"samplers":[
				{
					"input":4,
					"interpolation":"LINEAR",
					"output":5
				},
				{
					"input":4,
					"interpolation":"LINEAR",
					"output":6
				},
				{
					"input":4,
					"interpolation":"LINEAR",
					"output":7
				}
			]
		}
	],
	"materials":[
		{
			"doubleSided":true,
			"name":"Material.001",
			"pbrMetallicRoughness":{
				"baseColorFactor":[
					0.01820620894432068,
					0.12041261792182922,
					0.3982292115688324,
					1
				],
				"roughnessFactor":0.44999998807907104
			}
		}
	],
	"meshes":[
		{
			"name":"Cube.003",
			"primitives":[
				{
					"attributes":{
						"POSITION":0,
						"TEXCOORD_0":1,
						"NORMAL":2
					},
					"indices":3,
					"material":0
				}
			]
		}
	],
	"accessors":[
		{
			"bufferView":0,
			"componentType":5126,
			"count":22272,
			"max":[
				10.327136993408203,
				11.390708923339844,
				1.5753878355026245
			],
			"min":[
				-11.755702018737793,
				-10.835375785827637,
				-1.5753878355026245
			],
			"type":"VEC3"
		},
		{
			"bufferView":1,
			"componentType":5126,
			"count":22272,
			"type":"VEC2"
		},
		{
			"bufferView":2,
			"componentType":5126,
			"count":22272,
			"type":"VEC3"
		},
		{
			"bufferView":3,
			"componentType":5123,
			"count":126150,
			"type":"SCALAR"
		},
		{
			"bufferView":4,
			"componentType":5126,
			"count":90,
			"max":[
				3.75
			],
			"min":[
				0.041666666666666664
			],
			"type":"SCALAR"
		},
		{
			"bufferView":5,
			"componentType":5126,
			"count":90,
			"type":"VEC3"
		},
		{
			"bufferView":6,
			"componentType":5126,
			"count":90,
			"type":"VEC4"
		},
		{
			"bufferView":7,
			"componentType":5126,
			"count":90,
			"type":"VEC3"
		}
	],
	"bufferViews":[
		{
			"buffer":0,
			"byteLength":267264,
			"byteOffset":0,
			"target":34962
		},
		{
			"buffer":0,
			"byteLength":178176,
			"byteOffset":267264,
			"target":34962
		},
		{
			"buffer":0,
			"byteLength":267264,
			"byteOffset":445440,
			"target":34962
		},
		{
			"buffer":0,
			"byteLength":252300,
			"byteOffset":712704,
			"target":34963
		},
		{
			"buffer":0,
			"byteLength":360,
			"byteOffset":965004
		},
		{
			"buffer":0,
			"byteLength":1080,
			"byteOffset":965364
		},
		{
			"buffer":0,
			"byteLength":1440,
			"byteOffset":966444
		},
		{
			"buffer":0,
			"byteLength":1080,
			"byteOffset":967884
		}
	],
	"buffers":[
		{
			"byteLength":968964,
			"uri":"letter-q3.bin"
		}
	]
}
